# Blender v3.1.2 OBJ File: 'untitled.blend'
# www.blender.org
mtllib stick.mtl
o Cylinder
v -0.128402 6.310949 0.474463
v -0.962707 1.608802 -0.491382
v -0.161651 6.333929 0.543604
v -1.020793 1.608802 -0.436245
v -0.204403 6.397261 0.567594
v -1.100855 1.608802 -0.438330
v -0.231613 6.463846 0.532378
v -1.155992 1.608802 -0.496417
v -0.227343 6.494680 0.458587
v -1.153906 1.608802 -0.576478
v -0.194093 6.471701 0.389445
v -1.095820 1.608802 -0.631615
v -0.151342 6.408368 0.365456
v -1.015759 1.608802 -0.629530
v -0.124131 6.341783 0.400671
v -0.960621 1.608802 -0.571443
v -0.797841 5.580254 0.139186
v -0.964749 4.993976 -0.082491
v -1.004390 4.542710 -0.224069
v -1.005645 4.159092 -0.319290
v -0.996387 3.806418 -0.384481
v -0.987024 3.475998 -0.420523
v -0.982930 3.160681 -0.432469
v -0.978881 2.849923 -0.444266
v -0.974831 2.539165 -0.456063
v -0.970781 2.228407 -0.467860
v -0.966732 1.917649 -0.479657
v -1.024818 1.917649 -0.424520
v -1.028868 2.228407 -0.412723
v -1.032917 2.539165 -0.400926
v -1.036967 2.849923 -0.389129
v -1.041017 3.160681 -0.377331
v -1.045065 3.471298 -0.365539
v -1.054302 3.796777 -0.330011
v -1.063489 4.146638 -0.265316
v -1.062226 4.529675 -0.170225
v -1.022240 4.984235 -0.027591
v -0.852017 5.581167 0.198163
v -1.104879 1.917649 -0.426606
v -1.108929 2.228407 -0.414808
v -1.112979 2.539165 -0.403011
v -1.117028 2.849923 -0.391214
v -1.121078 3.160681 -0.379417
v -1.125113 3.469902 -0.367670
v -1.134335 3.794734 -0.332200
v -1.143551 4.145937 -0.267249
v -1.142248 4.532793 -0.171191
v -1.101418 4.996141 -0.025779
v -0.925510 5.611719 0.207083
v -1.160017 1.917649 -0.484692
v -1.164066 2.228407 -0.472895
v -1.168116 2.539165 -0.461098
v -1.172166 2.849923 -0.449301
v -1.176215 3.160681 -0.437504
v -1.180276 3.472628 -0.425668
v -1.189603 3.801485 -0.389768
v -1.198932 4.157399 -0.323956
v -1.197580 4.550239 -0.226401
v -1.155901 5.022722 -0.078117
v -0.975268 5.654013 0.160720
v -1.157931 1.917650 -0.564753
v -1.161981 2.228407 -0.552956
v -1.166030 2.539165 -0.541159
v -1.170080 2.849923 -0.529362
v -1.174130 3.160681 -0.517565
v -1.178241 3.477879 -0.505558
v -1.187731 3.813076 -0.468991
v -1.197191 4.174310 -0.402219
v -1.195809 4.571793 -0.303514
v -1.153774 5.048406 -0.153946
v -0.972144 5.683274 0.086234
v -1.099845 1.917650 -0.619891
v -1.103894 2.228407 -0.608093
v -1.107944 2.539165 -0.596296
v -1.111994 2.849923 -0.584499
v -1.116043 3.160681 -0.572702
v -1.120199 3.482579 -0.560542
v -1.129816 3.822717 -0.523462
v -1.139348 4.186764 -0.456193
v -1.137973 4.584829 -0.357358
v -1.096282 5.058147 -0.208846
v -0.917968 5.682362 0.027258
v -1.019783 1.917650 -0.617805
v -1.023833 2.228407 -0.606008
v -1.027883 2.539165 -0.594211
v -1.031932 2.849923 -0.582413
v -1.035982 3.160681 -0.570616
v -1.040152 3.483975 -0.558411
v -1.049783 3.824760 -0.521272
v -1.059286 4.187466 -0.454260
v -1.057951 4.581710 -0.356393
v -1.017104 5.046241 -0.210657
v -0.844475 5.651809 0.018338
v -0.964646 1.917650 -0.559718
v -0.968696 2.228407 -0.547921
v -0.972745 2.539165 -0.536124
v -0.976795 2.849923 -0.524327
v -0.980845 3.160681 -0.512530
v -0.984988 3.481249 -0.500413
v -0.994516 3.818009 -0.463704
v -1.003904 4.176003 -0.397553
v -1.002619 4.564264 -0.301182
v -0.962622 5.019660 -0.158319
v -0.794717 5.609515 0.064700
v -0.128402 6.310949 0.474463
v -0.161651 6.333929 0.543604
v -0.204403 6.397261 0.567594
v -0.231613 6.463846 0.532378
v -0.227343 6.494680 0.458587
v -0.194093 6.471701 0.389445
v -0.151342 6.408368 0.365456
v -0.124131 6.341783 0.400671
v 3.939314 6.310949 0.474463
v 3.906064 6.333929 0.543604
v 3.863313 6.397261 0.567594
v 3.836102 6.463846 0.532378
v 3.840373 6.494680 0.458587
v 3.873623 6.471701 0.389445
v 3.916374 6.408368 0.365456
v 3.943584 6.341783 0.400671
v 3.939314 6.310949 0.474463
v 3.906064 6.333929 0.543604
v 3.863313 6.397261 0.567594
v 3.836102 6.463846 0.532378
v 3.840373 6.494680 0.458587
v 3.873623 6.471701 0.389445
v 3.916374 6.408368 0.365456
v 3.943584 6.341783 0.400671
v 6.922116 6.310949 0.474463
v 6.888867 6.333929 0.543604
v 6.846116 6.397261 0.567594
v 6.818905 6.463846 0.532378
v 6.823176 6.494680 0.458587
v 6.856425 6.471701 0.389445
v 6.899177 6.408368 0.365456
v 6.926387 6.341783 0.400671
vt 1.000000 0.958589
vt 0.875000 0.958589
vt 0.875000 1.000000
vt 1.000000 1.000000
vt 0.750000 0.958590
vt 0.750000 1.000000
vt 0.625000 0.958589
vt 0.625000 1.000000
vt 0.500000 0.958589
vt 0.500000 1.000000
vt 0.375000 0.958589
vt 0.375000 1.000000
vt 0.250000 0.958590
vt 0.250000 1.000000
vt 0.419706 0.419706
vt 0.490000 0.250000
vt 0.419706 0.080294
vt 0.250000 0.010000
vt 0.080294 0.080294
vt 0.010000 0.250000
vt 0.080294 0.419706
vt 0.250000 0.490000
vt 0.125000 0.958589
vt 0.125000 1.000000
vt 0.000000 0.958589
vt 0.000000 1.000000
vt 0.250000 0.500000
vt 0.250000 0.500000
vt 0.125000 0.500000
vt 0.125000 0.500000
vt 0.000000 0.500000
vt 0.000000 0.541923
vt 0.125000 0.541923
vt 0.000000 0.583590
vt 0.125000 0.583590
vt 0.000000 0.625256
vt 0.125000 0.625256
vt 0.000000 0.666923
vt 0.125000 0.666923
vt 0.000000 0.708590
vt 0.125000 0.708590
vt 0.000000 0.750256
vt 0.125000 0.750256
vt 0.000000 0.791923
vt 0.125000 0.791923
vt 0.000000 0.833590
vt 0.125000 0.833589
vt 0.000000 0.875256
vt 0.125000 0.875256
vt 0.000000 0.916923
vt 0.125000 0.916923
vt 0.250000 0.541923
vt 0.250000 0.583589
vt 0.250000 0.625256
vt 0.250000 0.666923
vt 0.250000 0.708590
vt 0.250000 0.750256
vt 0.250000 0.791923
vt 0.250000 0.833590
vt 0.250000 0.875256
vt 0.250000 0.916923
vt 0.375000 0.500000
vt 0.375000 0.541923
vt 0.375000 0.583590
vt 0.375000 0.625256
vt 0.375000 0.666923
vt 0.375000 0.708590
vt 0.375000 0.750256
vt 0.375000 0.791923
vt 0.375000 0.833590
vt 0.375000 0.875256
vt 0.375000 0.916923
vt 0.500000 0.500000
vt 0.500000 0.541923
vt 0.500000 0.583590
vt 0.500000 0.625256
vt 0.500000 0.666923
vt 0.500000 0.708589
vt 0.500000 0.750256
vt 0.500000 0.791923
vt 0.500000 0.833590
vt 0.500000 0.875256
vt 0.500000 0.916923
vt 0.625000 0.500000
vt 0.625000 0.541923
vt 0.625000 0.583590
vt 0.625000 0.625256
vt 0.625000 0.666923
vt 0.625000 0.708590
vt 0.625000 0.750256
vt 0.625000 0.791923
vt 0.625000 0.833590
vt 0.625000 0.875256
vt 0.625000 0.916923
vt 0.750000 0.500000
vt 0.750000 0.541923
vt 0.750000 0.583590
vt 0.750000 0.625256
vt 0.750000 0.666923
vt 0.750000 0.708590
vt 0.750000 0.750256
vt 0.750000 0.791923
vt 0.750000 0.833590
vt 0.750000 0.875256
vt 0.750000 0.916923
vt 0.875000 0.500000
vt 0.875000 0.541923
vt 0.875000 0.583590
vt 0.875000 0.625256
vt 0.875000 0.666923
vt 0.875000 0.708589
vt 0.875000 0.750256
vt 0.875000 0.791923
vt 0.875000 0.833589
vt 0.875000 0.875256
vt 0.875000 0.916923
vt 1.000000 0.500000
vt 1.000000 0.541923
vt 1.000000 0.583589
vt 1.000000 0.625256
vt 1.000000 0.666923
vt 1.000000 0.708590
vt 1.000000 0.750256
vt 1.000000 0.791923
vt 1.000000 0.833590
vt 1.000000 0.875256
vt 1.000000 0.916923
vt 0.750000 0.500000
vt 0.750000 0.500000
vt 0.625000 0.500000
vt 0.625000 0.500000
vt 0.875000 0.500000
vt 0.500000 0.500000
vt 0.375000 0.500000
vt 0.000000 0.500000
vt 1.000000 0.500000
vt 0.250000 0.500000
vt 0.250000 0.500000
vt 0.125000 0.500000
vt 0.125000 0.500000
vt 1.000000 0.500000
vt 0.875000 0.500000
vt 0.000000 0.500000
vt 0.375000 0.500000
vt 0.500000 0.500000
vt 0.125000 0.500000
vt 0.000000 0.500000
vt 0.000000 0.500000
vt 0.500000 0.500000
vt 0.375000 0.500000
vt 0.750000 0.500000
vt 0.625000 0.500000
vt 1.000000 0.500000
vt 0.875000 0.500000
vt 0.750000 0.490000
vt 0.580294 0.419706
vt 0.510000 0.250000
vt 0.580294 0.080294
vt 0.750000 0.010000
vt 0.919706 0.080294
vt 0.990000 0.250000
vt 0.919706 0.419706
vt 0.375000 0.500000
vt 0.250000 0.500000
vt 0.625000 0.500000
vt 0.500000 0.500000
vt 0.875000 0.500000
vt 0.750000 0.500000
vt 1.000000 0.500000
vn 0.6883 -0.0186 0.7252
vn -0.0260 -0.0383 0.9989
vn -0.7248 -0.0356 0.6880
vn -0.9996 -0.0120 -0.0260
vn -0.6883 0.0186 -0.7252
vn 0.0260 0.0383 -0.9989
vn 0.0000 -1.0000 -0.0000
vn 0.7248 0.0356 -0.6880
vn 0.9996 0.0120 0.0260
vn 0.0000 0.0000 1.0000
vn 0.7669 -0.6071 -0.2078
vn 0.9658 -0.2527 -0.0586
vn 0.9962 -0.0870 -0.0015
vn 0.9998 -0.0084 0.0205
vn 0.9994 0.0213 0.0268
vn 0.9993 0.0253 0.0272
vn 0.9996 0.0120 0.0261
vn 0.5878 -0.1761 -0.7896
vn 0.7082 0.0641 -0.7031
vn 0.7217 0.1487 -0.6761
vn 0.7221 0.1644 -0.6719
vn 0.7223 0.1439 -0.6764
vn 0.7236 0.0950 -0.6837
vn 0.7249 0.0353 -0.6880
vn 0.0464 0.3811 -0.9234
vn 0.0303 0.3460 -0.9377
vn 0.0230 0.2974 -0.9545
vn 0.0212 0.2408 -0.9703
vn 0.0222 0.1822 -0.9830
vn 0.0245 0.1090 -0.9937
vn 0.0260 0.0381 -0.9989
vn -0.5211 0.7013 -0.4864
vn -0.6631 0.4231 -0.6174
vn -0.6881 0.2718 -0.6728
vn -0.6916 0.1763 -0.7004
vn -0.6907 0.1139 -0.7141
vn -0.6891 0.0593 -0.7223
vn -0.6884 0.0185 -0.7251
vn -0.7662 0.6079 0.2082
vn -0.9654 0.2539 0.0591
vn -0.9962 0.0874 0.0016
vn -0.9998 0.0085 -0.0205
vn -0.9994 -0.0212 -0.0268
vn -0.9993 -0.0253 -0.0272
vn -0.9996 -0.0120 -0.0261
vn -0.5873 0.1767 0.7899
vn -0.7080 -0.0636 0.7033
vn -0.7217 -0.1485 0.6761
vn -0.7222 -0.1644 0.6719
vn -0.7223 -0.1440 0.6764
vn -0.7236 -0.0952 0.6836
vn -0.7249 -0.0356 0.6879
vn -0.0464 -0.3811 0.9233
vn -0.0303 -0.3460 0.9377
vn -0.0230 -0.2975 0.9544
vn -0.0212 -0.2408 0.9703
vn -0.0222 -0.1824 0.9830
vn -0.0245 -0.1092 0.9937
vn 0.5213 -0.7011 0.4865
vn 0.6633 -0.4226 0.6177
vn 0.6881 -0.2716 0.6729
vn 0.6916 -0.1761 0.7004
vn 0.6907 -0.1139 0.7141
vn 0.6891 -0.0593 0.7223
vn 0.6884 -0.0185 0.7251
vn 0.0000 0.4675 0.8840
vn 0.0000 -0.9490 0.3154
vn 0.0000 -0.9227 -0.3855
vn 0.0000 0.3542 -0.9352
vn 0.0000 0.9227 0.3855
vn 0.0000 -0.3542 0.9352
vn 0.0000 -0.4675 -0.8840
vn 0.0000 0.9490 -0.3154
vn 0.0000 -0.9227 -0.3856
vn 0.8439 0.4759 0.2477
g Cylinder_Cylinder_None
usemtl None
s off
f 27/1/1 28/2/1 4/3/1 2/4/1
f 28/2/2 39/5/2 6/6/2 4/3/2
f 39/5/3 50/7/3 8/8/3 6/6/3
f 50/7/4 61/9/4 10/10/4 8/8/4
f 61/9/5 72/11/5 12/12/5 10/10/5
f 72/11/6 83/13/6 14/14/6 12/12/6
f 4/15/7 6/16/7 8/17/7 10/18/7 12/19/7 14/20/7 16/21/7 2/22/7
f 83/13/8 94/23/8 16/24/8 14/14/8
f 94/23/9 27/25/9 2/26/9 16/24/9
f 13/27/10 111/28/10 112/29/10 15/30/10
f 15/30/11 1/31/11 17/32/11 104/33/11
f 104/33/12 17/32/12 18/34/12 103/35/12
f 103/35/13 18/34/13 19/36/13 102/37/13
f 102/37/14 19/36/14 20/38/14 101/39/14
f 101/39/15 20/38/15 21/40/15 100/41/15
f 100/41/16 21/40/16 22/42/16 99/43/16
f 99/43/17 22/42/17 23/44/17 98/45/17
f 98/45/9 23/44/9 24/46/9 97/47/9
f 97/47/9 24/46/9 25/48/9 96/49/9
f 96/49/9 25/48/9 26/50/9 95/51/9
f 95/51/9 26/50/9 27/25/9 94/23/9
f 13/27/18 15/30/18 104/33/18 93/52/18
f 93/52/19 104/33/19 103/35/19 92/53/19
f 92/53/20 103/35/20 102/37/20 91/54/20
f 91/54/21 102/37/21 101/39/21 90/55/21
f 90/55/22 101/39/22 100/41/22 89/56/22
f 89/56/23 100/41/23 99/43/23 88/57/23
f 88/57/24 99/43/24 98/45/24 87/58/24
f 87/58/8 98/45/8 97/47/8 86/59/8
f 86/59/8 97/47/8 96/49/8 85/60/8
f 85/60/8 96/49/8 95/51/8 84/61/8
f 84/61/8 95/51/8 94/23/8 83/13/8
f 11/62/25 13/27/25 93/52/25 82/63/25
f 82/63/26 93/52/26 92/53/26 81/64/26
f 81/64/27 92/53/27 91/54/27 80/65/27
f 80/65/28 91/54/28 90/55/28 79/66/28
f 79/66/29 90/55/29 89/56/29 78/67/29
f 78/67/30 89/56/30 88/57/30 77/68/30
f 77/68/31 88/57/31 87/58/31 76/69/31
f 76/69/6 87/58/6 86/59/6 75/70/6
f 75/70/6 86/59/6 85/60/6 74/71/6
f 74/71/6 85/60/6 84/61/6 73/72/6
f 73/72/6 84/61/6 83/13/6 72/11/6
f 9/73/32 11/62/32 82/63/32 71/74/32
f 71/74/33 82/63/33 81/64/33 70/75/33
f 70/75/34 81/64/34 80/65/34 69/76/34
f 69/76/35 80/65/35 79/66/35 68/77/35
f 68/77/36 79/66/36 78/67/36 67/78/36
f 67/78/37 78/67/37 77/68/37 66/79/37
f 66/79/38 77/68/38 76/69/38 65/80/38
f 65/80/5 76/69/5 75/70/5 64/81/5
f 64/81/5 75/70/5 74/71/5 63/82/5
f 63/82/5 74/71/5 73/72/5 62/83/5
f 62/83/5 73/72/5 72/11/5 61/9/5
f 7/84/39 9/73/39 71/74/39 60/85/39
f 60/85/40 71/74/40 70/75/40 59/86/40
f 59/86/41 70/75/41 69/76/41 58/87/41
f 58/87/42 69/76/42 68/77/42 57/88/42
f 57/88/43 68/77/43 67/78/43 56/89/43
f 56/89/44 67/78/44 66/79/44 55/90/44
f 55/90/45 66/79/45 65/80/45 54/91/45
f 54/91/4 65/80/4 64/81/4 53/92/4
f 53/92/4 64/81/4 63/82/4 52/93/4
f 52/93/4 63/82/4 62/83/4 51/94/4
f 51/94/4 62/83/4 61/9/4 50/7/4
f 5/95/46 7/84/46 60/85/46 49/96/46
f 49/96/47 60/85/47 59/86/47 48/97/47
f 48/97/48 59/86/48 58/87/48 47/98/48
f 47/98/49 58/87/49 57/88/49 46/99/49
f 46/99/50 57/88/50 56/89/50 45/100/50
f 45/100/51 56/89/51 55/90/51 44/101/51
f 44/101/52 55/90/52 54/91/52 43/102/52
f 43/102/3 54/91/3 53/92/3 42/103/3
f 42/103/3 53/92/3 52/93/3 41/104/3
f 41/104/3 52/93/3 51/94/3 40/105/3
f 40/105/3 51/94/3 50/7/3 39/5/3
f 3/106/53 5/95/53 49/96/53 38/107/53
f 38/107/54 49/96/54 48/97/54 37/108/54
f 37/108/55 48/97/55 47/98/55 36/109/55
f 36/109/56 47/98/56 46/99/56 35/110/56
f 35/110/57 46/99/57 45/100/57 34/111/57
f 34/111/58 45/100/58 44/101/58 33/112/58
f 33/112/2 44/101/2 43/102/2 32/113/2
f 32/113/2 43/102/2 42/103/2 31/114/2
f 31/114/2 42/103/2 41/104/2 30/115/2
f 30/115/2 41/104/2 40/105/2 29/116/2
f 29/116/2 40/105/2 39/5/2 28/2/2
f 1/117/59 3/106/59 38/107/59 17/118/59
f 17/118/60 38/107/60 37/108/60 18/119/60
f 18/119/61 37/108/61 36/109/61 19/120/61
f 19/120/62 36/109/62 35/110/62 20/121/62
f 20/121/63 35/110/63 34/111/63 21/122/63
f 21/122/64 34/111/64 33/112/64 22/123/64
f 22/123/65 33/112/65 32/113/65 23/124/65
f 23/124/1 32/113/1 31/114/1 24/125/1
f 24/125/1 31/114/1 30/115/1 25/126/1
f 25/126/1 30/115/1 29/116/1 26/127/1
f 26/127/1 29/116/1 28/2/1 27/1/1
f 107/128/66 115/129/66 116/130/66 108/131/66
f 3/106/10 106/132/10 107/128/10 5/95/10
f 9/73/10 109/133/10 110/134/10 11/62/10
f 15/30/10 112/29/10 105/135/10 1/31/10
f 1/117/10 105/136/10 106/132/10 3/106/10
f 5/95/10 107/128/10 108/131/10 7/84/10
f 11/62/10 110/134/10 111/28/10 13/27/10
f 7/84/10 108/131/10 109/133/10 9/73/10
f 119/137/10 127/138/10 128/139/10 120/140/10
f 105/136/67 113/141/67 114/142/67 106/132/67
f 112/29/68 120/140/68 113/143/68 105/135/68
f 110/134/69 118/144/69 119/137/69 111/28/69
f 108/131/70 116/130/70 117/145/70 109/133/70
f 106/132/71 114/142/71 115/129/71 107/128/71
f 111/28/72 119/137/72 120/140/72 112/29/72
f 109/133/73 117/145/73 118/144/73 110/134/73
f 128/139/74 136/146/74 129/147/74 121/148/74
f 117/145/10 125/149/10 126/150/10 118/144/10
f 115/129/10 123/151/10 124/152/10 116/130/10
f 113/141/10 121/153/10 122/154/10 114/142/10
f 120/140/10 128/139/10 121/148/10 113/143/10
f 118/144/10 126/150/10 127/138/10 119/137/10
f 116/130/10 124/152/10 125/149/10 117/145/10
f 114/142/10 122/154/10 123/151/10 115/129/10
f 129/155/75 136/156/75 135/157/75 134/158/75 133/159/75 132/160/75 131/161/75 130/162/75
f 126/150/69 134/163/69 135/164/69 127/138/69
f 124/152/70 132/165/70 133/166/70 125/149/70
f 122/154/71 130/167/71 131/168/71 123/151/71
f 127/138/72 135/164/72 136/146/72 128/139/72
f 125/149/73 133/166/73 134/163/73 126/150/73
f 123/151/66 131/168/66 132/165/66 124/152/66
f 121/153/67 129/169/67 130/167/67 122/154/67
